<svg width="25" height="25" viewBox="0 0 25 25" fill="none" xmlns="http://www.w3.org/2000/svg">
<path d="M22.0215 18.2616C21.2461 17.4804 19.3681 16.3403 18.457 15.8808C17.2705 15.2831 17.1728 15.2343 16.2402 15.9272C15.6181 16.3896 15.2046 16.8027 14.4765 16.6474C13.7485 16.4921 12.1665 15.6166 10.7812 14.2358C9.39597 12.8549 8.4697 11.227 8.31394 10.5014C8.15818 9.7758 8.5781 9.36711 9.03611 8.74357C9.68162 7.86466 9.63279 7.71818 9.08103 6.53166C8.65086 5.60881 7.47752 3.74845 6.69334 2.97697C5.85447 2.14835 5.85447 2.29484 5.31394 2.51945C4.87389 2.7046 4.45171 2.92966 4.05271 3.19181C3.27146 3.71086 2.83787 4.14201 2.53464 4.78996C2.23142 5.43791 2.09519 6.95695 3.66111 9.80168C5.22703 12.6464 6.32566 14.101 8.59959 16.3686C10.8735 18.6362 12.622 19.8554 15.1782 21.289C18.3403 23.06 19.5532 22.7148 20.2031 22.412C20.853 22.1093 21.2861 21.6796 21.8061 20.8984C22.069 20.5 22.2945 20.0783 22.48 19.6386C22.7051 19.1 22.8515 19.1 22.0215 18.2616Z" stroke="white" stroke-width="2" stroke-miterlimit="10"/>
</svg>
