<?xml version="1.0" standalone="no"?>

<svg version="1.0" xmlns="http://www.w3.org/2000/svg"
 width="64.000000pt" height="64.000000pt" viewBox="0 0 64.000000 64.000000"
 preserveAspectRatio="xMidYMid meet">

<g transform="translate(0.000000,64.000000) scale(0.100000,-0.100000)"
fill="#000000" stroke="none">
<path d="M429 591 c-16 -16 -29 -36 -29 -45 0 -8 -9 -17 -20 -21 -25 -8 -60
-52 -60 -76 0 -17 9 -19 90 -19 81 0 90 2 90 19 0 24 -35 68 -60 76 -11 4 -20
13 -20 21 0 22 38 54 65 54 14 0 34 -9 45 -20 18 -18 20 -33 20 -130 0 -93 -2
-109 -15 -104 -11 4 -15 0 -15 -16 0 -16 4 -20 15 -16 9 3 15 0 15 -9 0 -12
-21 -15 -120 -15 -109 0 -120 2 -120 18 0 34 -21 42 -110 42 -89 0 -110 -8
-110 -42 0 -14 -8 -18 -40 -18 -36 0 -40 -2 -40 -25 0 -18 5 -25 20 -25 18 0
20 -7 20 -70 0 -63 3 -74 25 -94 14 -13 25 -31 25 -40 0 -11 9 -16 30 -16 23
0 30 4 30 20 0 19 7 20 160 20 153 0 160 -1 160 -20 0 -16 7 -20 30 -20 21 0
30 5 30 16 0 9 11 27 25 40 22 20 25 31 25 94 0 63 2 70 20 70 15 0 20 7 20
25 0 21 -5 25 -30 25 l-30 0 0 136 0 136 -29 29 c-18 17 -40 29 -56 29 -16 0
-38 -12 -56 -29z m28 -103 c13 -12 23 -25 23 -30 0 -4 -31 -8 -70 -8 -38 0
-70 3 -70 7 0 4 10 17 22 30 27 29 65 29 95 1z m-227 -238 l0 -80 -60 0 -60 0
0 80 0 80 60 0 60 0 0 -80z m60 60 c0 -13 -7 -20 -20 -20 -13 0 -20 7 -20 20
0 13 7 20 20 20 13 0 20 -7 20 -20z m-212 -47 c-10 -2 -26 -2 -35 0 -10 3 -2
5 17 5 19 0 27 -2 18 -5z m444 0 c-50 -2 -134 -2 -185 0 -50 1 -9 3 93 3 102
0 143 -2 92 -3z m-432 -60 c0 -21 3 -48 6 -60 7 -26 24 -31 24 -8 0 8 9 15 20
15 11 0 20 -7 20 -15 0 -8 5 -15 10 -15 6 0 10 7 10 15 0 8 9 15 20 15 11 0
20 -7 20 -15 0 -23 17 -18 24 8 3 12 6 39 6 60 l0 37 160 0 160 0 0 -68 c0
-40 -5 -73 -12 -80 -17 -17 -459 -17 -476 0 -15 15 -16 148 -2 148 6 0 10 -17
10 -37z m50 -153 c0 -5 -4 -10 -10 -10 -5 0 -10 5 -10 10 0 6 5 10 10 10 6 0
10 -4 10 -10z m380 0 c0 -5 -4 -10 -10 -10 -5 0 -10 5 -10 10 0 6 5 10 10 10
6 0 10 -4 10 -10z"/>
</g>
</svg>
